<mxfile host="65bd71144e">
    <diagram id="Sv7ANccjvepn01_EJuH9" name="Page-1">
        <mxGraphModel dx="3133" dy="1139" grid="1" gridSize="10" guides="1" tooltips="1" connect="1" arrows="1" fold="1" page="1" pageScale="1" pageWidth="1169" pageHeight="827" background="#ffffff" math="0" shadow="0">
            <root>
                <mxCell id="0"/>
                <mxCell id="1" parent="0"/>
                <mxCell id="2" value="" style="shape=umlLifeline;participant=umlActor;perimeter=lifelinePerimeter;whiteSpace=wrap;html=1;container=1;collapsible=0;recursiveResize=0;verticalAlign=top;spacingTop=36;outlineConnect=0;strokeWidth=2;strokeColor=#82b366;fillColor=#d5e8d4;" parent="1" vertex="1">
                    <mxGeometry x="150" y="120" width="20" height="1030" as="geometry"/>
                </mxCell>
                <mxCell id="6" value="" style="html=1;points=[];perimeter=orthogonalPerimeter;strokeColor=#82b366;strokeWidth=2;fillColor=#d5e8d4;" parent="2" vertex="1">
                    <mxGeometry x="5" y="80" width="10" height="40" as="geometry"/>
                </mxCell>
                <mxCell id="28" value="" style="html=1;points=[];perimeter=orthogonalPerimeter;strokeColor=#82b366;strokeWidth=2;fillColor=#d5e8d4;" parent="2" vertex="1">
                    <mxGeometry x="5" y="281" width="10" height="40" as="geometry"/>
                </mxCell>
                <mxCell id="29" value="&lt;b&gt;Click on&lt;/b&gt;&lt;br&gt;&quot;&lt;i&gt;accept disclaimer&lt;/i&gt;&quot; button&lt;b&gt;&amp;nbsp;&lt;/b&gt;" style="html=1;verticalAlign=bottom;endArrow=block;fontColor=#000000;labelBackgroundColor=none;strokeWidth=2;fillColor=#d5e8d4;gradientColor=#97d077;strokeColor=#82b366;entryX=0.216;entryY=0.003;entryDx=0;entryDy=0;entryPerimeter=0;" parent="2" target="31" edge="1">
                    <mxGeometry width="80" relative="1" as="geometry">
                        <mxPoint x="10" y="281" as="sourcePoint"/>
                        <mxPoint x="160" y="281" as="targetPoint"/>
                    </mxGeometry>
                </mxCell>
                <mxCell id="3" value="&lt;b&gt;Software&lt;/b&gt;&lt;br&gt;( Client Side )&amp;nbsp;" style="shape=umlLifeline;perimeter=lifelinePerimeter;whiteSpace=wrap;html=1;container=0;collapsible=0;recursiveResize=0;outlineConnect=0;strokeColor=#b85450;strokeWidth=2;fillColor=#f8cecc;fontColor=#000000;" parent="1" vertex="1">
                    <mxGeometry x="270" y="120" width="100" height="1040" as="geometry"/>
                </mxCell>
                <mxCell id="4" value="&lt;b&gt;API&lt;/b&gt;&lt;br&gt;( Server Side )" style="shape=umlLifeline;perimeter=lifelinePerimeter;whiteSpace=wrap;html=1;container=0;collapsible=0;recursiveResize=0;outlineConnect=0;strokeColor=#9673a6;strokeWidth=2;fillColor=#e1d5e7;fontColor=#000000;" parent="1" vertex="1">
                    <mxGeometry x="430" y="120" width="100" height="1050" as="geometry"/>
                </mxCell>
                <mxCell id="5" value="&lt;b&gt;Python process&lt;/b&gt;&lt;br&gt;( pytube )" style="shape=umlLifeline;perimeter=lifelinePerimeter;whiteSpace=wrap;html=1;container=0;collapsible=0;recursiveResize=0;outlineConnect=0;strokeColor=#10739e;strokeWidth=2;fillColor=#b1ddf0;fontColor=#000000;" parent="1" vertex="1">
                    <mxGeometry x="590" y="120" width="100" height="1040" as="geometry"/>
                </mxCell>
                <mxCell id="24" value="Install Software - Sequences Diagram" style="text;align=center;fontStyle=1;verticalAlign=middle;spacingLeft=3;spacingRight=3;strokeColor=none;rotatable=0;points=[[0,0.5],[1,0.5]];portConstraint=eastwest;fontColor=#000000;fontSize=25;" parent="1" vertex="1">
                    <mxGeometry x="360" y="50" width="80" height="26" as="geometry"/>
                </mxCell>
                <mxCell id="25" value="&lt;b&gt;Click on&lt;/b&gt; executable file" style="html=1;verticalAlign=bottom;endArrow=block;fontColor=#000000;labelBackgroundColor=none;strokeWidth=2;fillColor=#d5e8d4;gradientColor=#97d077;strokeColor=#82b366;" parent="1" target="3" edge="1">
                    <mxGeometry width="80" relative="1" as="geometry">
                        <mxPoint x="160" y="200" as="sourcePoint"/>
                        <mxPoint x="240" y="200" as="targetPoint"/>
                    </mxGeometry>
                </mxCell>
                <mxCell id="9" value="" style="html=1;points=[];perimeter=orthogonalPerimeter;strokeColor=#ae4132;strokeWidth=2;fillColor=#fad9d5;" parent="1" vertex="1">
                    <mxGeometry x="315" y="200" width="10" height="160" as="geometry"/>
                </mxCell>
                <mxCell id="26" value="&lt;b&gt;Launch&lt;/b&gt;&lt;br&gt;sofware&lt;br&gt;installer" style="html=1;verticalAlign=bottom;endArrow=block;fontColor=#000000;labelBackgroundColor=#FFFFFF;strokeWidth=2;fillColor=#f8cecc;strokeColor=#b85450;" parent="1" edge="1">
                    <mxGeometry x="0.1667" width="80" relative="1" as="geometry">
                        <mxPoint x="325.0000000000002" y="240" as="sourcePoint"/>
                        <mxPoint x="325" y="280" as="targetPoint"/>
                        <Array as="points">
                            <mxPoint x="365" y="240"/>
                            <mxPoint x="365" y="280"/>
                        </Array>
                        <mxPoint as="offset"/>
                    </mxGeometry>
                </mxCell>
                <mxCell id="27" value="&lt;b&gt;Display&lt;/b&gt;&lt;br&gt;Disclaimer" style="html=1;verticalAlign=bottom;endArrow=block;fontColor=#000000;labelBackgroundColor=#FFFFFF;strokeWidth=2;fillColor=#f8cecc;strokeColor=#b85450;" parent="1" edge="1">
                    <mxGeometry x="0.1667" width="80" relative="1" as="geometry">
                        <mxPoint x="325.0000000000002" y="320" as="sourcePoint"/>
                        <mxPoint x="325" y="360" as="targetPoint"/>
                        <Array as="points">
                            <mxPoint x="365" y="320"/>
                            <mxPoint x="365" y="360"/>
                        </Array>
                        <mxPoint as="offset"/>
                    </mxGeometry>
                </mxCell>
                <mxCell id="31" value="" style="html=1;points=[];perimeter=orthogonalPerimeter;strokeColor=#ae4132;strokeWidth=2;fillColor=#fad9d5;" parent="1" vertex="1">
                    <mxGeometry x="315" y="400" width="10" height="80" as="geometry"/>
                </mxCell>
                <mxCell id="32" value="&lt;b&gt;Display&lt;/b&gt;&lt;br&gt;terms of use" style="html=1;verticalAlign=bottom;endArrow=block;fontColor=#000000;labelBackgroundColor=#FFFFFF;strokeWidth=2;fillColor=#f8cecc;strokeColor=#b85450;" parent="1" edge="1">
                    <mxGeometry x="0.1667" width="80" relative="1" as="geometry">
                        <mxPoint x="325" y="440" as="sourcePoint"/>
                        <mxPoint x="325" y="480" as="targetPoint"/>
                        <Array as="points">
                            <mxPoint x="365" y="440"/>
                            <mxPoint x="365" y="480"/>
                        </Array>
                        <mxPoint as="offset"/>
                    </mxGeometry>
                </mxCell>
                <mxCell id="34" value="" style="html=1;points=[];perimeter=orthogonalPerimeter;strokeColor=#82b366;strokeWidth=2;fillColor=#d5e8d4;" parent="1" vertex="1">
                    <mxGeometry x="155" y="520" width="10" height="40" as="geometry"/>
                </mxCell>
                <mxCell id="35" value="&lt;b&gt;Click on&lt;/b&gt;&lt;br&gt;&quot;&lt;i&gt;accept terms of use&lt;/i&gt;&quot; button&lt;b&gt;&amp;nbsp;&lt;/b&gt;" style="html=1;verticalAlign=bottom;endArrow=block;fontColor=#000000;labelBackgroundColor=none;strokeWidth=2;fillColor=#d5e8d4;gradientColor=#97d077;strokeColor=#82b366;entryX=0.216;entryY=0.003;entryDx=0;entryDy=0;entryPerimeter=0;" parent="1" edge="1">
                    <mxGeometry width="80" relative="1" as="geometry">
                        <mxPoint x="160" y="520" as="sourcePoint"/>
                        <mxPoint x="317.1600000000001" y="519.24" as="targetPoint"/>
                    </mxGeometry>
                </mxCell>
                <mxCell id="37" value="" style="html=1;points=[];perimeter=orthogonalPerimeter;strokeColor=#ae4132;strokeWidth=2;fillColor=#fad9d5;" parent="1" vertex="1">
                    <mxGeometry x="316" y="520" width="10" height="480" as="geometry"/>
                </mxCell>
                <mxCell id="38" value="" style="html=1;points=[];perimeter=orthogonalPerimeter;strokeColor=#82b366;strokeWidth=2;fillColor=#d5e8d4;" parent="1" vertex="1">
                    <mxGeometry x="156" y="640" width="10" height="40" as="geometry"/>
                </mxCell>
                <mxCell id="39" value="&lt;b&gt;Submit&lt;/b&gt;&lt;br&gt;&quot;&lt;i&gt;choices&lt;/i&gt;&quot;&lt;b&gt;&amp;nbsp;&lt;/b&gt;" style="html=1;verticalAlign=bottom;endArrow=block;fontColor=#000000;labelBackgroundColor=none;strokeWidth=2;fillColor=#d5e8d4;gradientColor=#97d077;strokeColor=#82b366;entryX=0.216;entryY=0.003;entryDx=0;entryDy=0;entryPerimeter=0;" parent="1" edge="1">
                    <mxGeometry width="80" relative="1" as="geometry">
                        <mxPoint x="160.99999999999977" y="640" as="sourcePoint"/>
                        <mxPoint x="318.1600000000001" y="639.2399999999998" as="targetPoint"/>
                    </mxGeometry>
                </mxCell>
                <mxCell id="41" value="&lt;b&gt;&lt;font style=&quot;font-size: 20px&quot;&gt;Alt&lt;/font&gt;&lt;/b&gt;" style="shape=umlFrame;tabWidth=110;tabHeight=30;tabPosition=left;html=1;boundedLbl=1;labelInHeader=1;width=140;height=30;fillColor=none;strokeColor=#4D4D4D;strokeWidth=2;fontColor=#000000;" parent="1" vertex="1">
                    <mxGeometry x="-20" y="720" width="540" height="300" as="geometry"/>
                </mxCell>
                <mxCell id="42" value="[Disclaimer and terms&#10;of use are not accepted]" style="text;fontColor=#000000;fontSize=15;" parent="41" vertex="1">
                    <mxGeometry width="100" height="20" relative="1" as="geometry">
                        <mxPoint x="10" y="50" as="offset"/>
                    </mxGeometry>
                </mxCell>
                <mxCell id="43" value="[ Else ]" style="line;strokeWidth=2;dashed=1;labelPosition=center;verticalLabelPosition=bottom;align=left;verticalAlign=top;spacingLeft=20;spacingTop=15;fontColor=#000000;strokeColor=#4D4D4D;labelBackgroundColor=none;fontSize=15;" parent="41" vertex="1">
                    <mxGeometry y="114" width="540" height="12.000000000000002" as="geometry"/>
                </mxCell>
                <mxCell id="44" value="&lt;b&gt;Display&lt;/b&gt;&lt;br&gt;error message" style="html=1;verticalAlign=bottom;endArrow=block;fontColor=#000000;labelBackgroundColor=#FFFFFF;strokeWidth=2;fillColor=#f8cecc;strokeColor=#b85450;entryX=0.641;entryY=0.267;entryDx=0;entryDy=0;entryPerimeter=0;" parent="41" target="41" edge="1">
                    <mxGeometry x="0.1667" width="80" relative="1" as="geometry">
                        <mxPoint x="346" y="39.99666666666667" as="sourcePoint"/>
                        <mxPoint x="346" y="87.99666666666667" as="targetPoint"/>
                        <Array as="points">
                            <mxPoint x="386" y="39.99666666666667"/>
                            <mxPoint x="386" y="80"/>
                        </Array>
                        <mxPoint as="offset"/>
                    </mxGeometry>
                </mxCell>
                <mxCell id="45" value="&lt;b&gt;Install software&lt;/b&gt;" style="html=1;verticalAlign=bottom;endArrow=block;fontColor=#000000;labelBackgroundColor=#FFFFFF;strokeWidth=2;fillColor=#f8cecc;strokeColor=#b85450;entryX=0.643;entryY=0.667;entryDx=0;entryDy=0;entryPerimeter=0;" parent="41" target="41" edge="1">
                    <mxGeometry x="0.1667" y="13" width="80" relative="1" as="geometry">
                        <mxPoint x="347" y="161.00000000000003" as="sourcePoint"/>
                        <mxPoint x="347" y="209" as="targetPoint"/>
                        <Array as="points">
                            <mxPoint x="387" y="161.00000000000003"/>
                            <mxPoint x="387" y="200"/>
                        </Array>
                        <mxPoint as="offset"/>
                    </mxGeometry>
                </mxCell>
                <mxCell id="46" value="&lt;b&gt;Open software&lt;/b&gt;" style="html=1;verticalAlign=bottom;endArrow=block;fontColor=#000000;labelBackgroundColor=#FFFFFF;strokeWidth=2;fillColor=#f8cecc;strokeColor=#b85450;entryX=0.643;entryY=0.667;entryDx=0;entryDy=0;entryPerimeter=0;" parent="41" edge="1">
                    <mxGeometry x="0.1667" y="13" width="80" relative="1" as="geometry">
                        <mxPoint x="347" y="240" as="sourcePoint"/>
                        <mxPoint x="347.22000000000025" y="279.10000000000014" as="targetPoint"/>
                        <Array as="points">
                            <mxPoint x="387" y="240"/>
                            <mxPoint x="387" y="279"/>
                        </Array>
                        <mxPoint as="offset"/>
                    </mxGeometry>
                </mxCell>
                <mxCell id="47" value="" style="rounded=0;whiteSpace=wrap;html=1;fontSize=20;fillColor=none;strokeColor=#000000;" parent="1" vertex="1">
                    <mxGeometry x="-40" y="40" width="760" height="1140" as="geometry"/>
                </mxCell>
            </root>
        </mxGraphModel>
    </diagram>
</mxfile>